<?xml version="1.0" encoding="UTF-8"?><svg id="Camada_1" xmlns="http://www.w3.org/2000/svg" viewBox="0 0 595.28 595.28"><path d="M435.53,396.68l-124.9-155.36,20.01-24.7,33.92,27.12c18.43,14.74,45.5,11.65,60.32-6.89,14.68-18.36,11.74-45.31-6.55-60.07l-.04-.03-.06-.05-46.31-37.02-71.5,88.94-70.68-87.92-46.31,37.02-.06.05-.04.03c-18.29,14.76-21.24,41.71-6.55,60.07,14.82,18.53,41.89,21.62,60.32,6.89l33.92-27.12,19.19,23.69-124.08,154.34c-.61.76-1.25,2.47-1.21,4.43.03,1.48.48,3.58,2.42,5.15,4.1,3.3,9.51,1.22,10.56-.07l23.46-28.96c5.01,2.58,11.29,7.2,15.1,13.27,3.91,6.24,8.19,14.19,23.98,17.1,2.37.44,5.23.94,6.73,6.92.49,1.97,3.25,8.66,7.98,1.52,1.2-1.82,3.29-5.96,4.97-7.16,2.13-1.53,7.36-8.06-.74-10.47-1.77-.53-4.01.02-6.47-3.59-1.16-1.7-5.87-4.8-10.33-1.73-3.15,2.17-9.37,4.94-12.91,2.27-2.04-1.54-5.84-4.79-.64-11.48,1.13-1.46,6.27-5.98.22-7.39-4.76-1.11-16.54-7.31-9.83-16.91,7.98-8.57,16.51,1.65,18.59,6.08,2.64,5.62,5.99-.34,7.18-1.76,5.45-6.49,9.42-3.45,11.36-1.77,3.35,2.9,1.94,9.56.47,13.1-2.07,5.01,1.94,8.97,3.85,9.74,4.05,1.65,3.97,3.95,4.86,5.58,4.05,7.42,9.34.94,10.39-1.46.83-1.89,4.44-4.8,5.96-6.36,5.99-6.12-1.12-7.41-3.15-7.48-6.17-.22-7.25-2.91-8.18-5.14-6.15-14.84-14.81-17.36-21.73-19.88-6.72-2.44-12.54-7.61-16.11-11.96l67.51-83.34,68.33,84.35c-3.57,4.35-9.39,9.52-16.11,11.96-6.92,2.52-15.58,5.04-21.73,19.88-.92,2.23-2.01,4.92-8.18,5.14-2.03.07-9.15,1.36-3.15,7.48,1.52,1.56,5.14,4.46,5.96,6.36,1.05,2.4,6.34,8.88,10.39,1.46.89-1.62.81-3.93,4.86-5.58,1.91-.78,5.92-4.74,3.85-9.74-1.46-3.54-2.88-10.2.47-13.1,1.93-1.67,5.91-4.71,11.36,1.77,1.19,1.41,4.54,7.38,7.18,1.76,2.08-4.42,10.61-14.65,18.59-6.08,6.72,9.59-5.07,15.8-9.83,16.91-6.05,1.41-.91,5.93.22,7.39,5.2,6.68,1.4,9.93-.64,11.48-3.54,2.67-9.76-.1-12.91-2.27-4.46-3.07-9.17.02-10.33,1.73-2.46,3.61-4.7,3.06-6.47,3.59-8.1,2.41-2.87,8.94-.74,10.47,1.68,1.2,3.77,5.34,4.97,7.16,4.73,7.14,7.48.45,7.98-1.52,1.5-5.99,4.36-6.49,6.73-6.92,15.8-2.91,20.08-10.86,23.98-17.1,3.8-6.07,10.09-10.69,15.1-13.27l23.46,28.96c1.05,1.29,6.46,3.37,10.56.07,1.95-1.57,2.39-3.67,2.42-5.15.05-1.96-.59-3.67-1.21-4.43ZM374.41,161.81l33.95,27.14c11.67,9.41,13.53,26.46,4.25,38.07-4.58,5.73-11.07,9.35-18.26,10.18-1.05.12-2.1.18-3.14.18-6.1,0-11.98-2.06-16.83-5.93l-33.96-27.14,33.98-42.5ZM227.29,232.47c-4.85,3.88-10.72,5.93-16.83,5.93-1.04,0-2.09-.06-3.14-.18-7.19-.83-13.67-4.44-18.26-10.18-9.29-11.61-7.42-28.66,4.25-38.07l33.95-27.14,33.98,42.5-33.96,27.14Z" style="fill:#fff;"/><path d="M301.28,186.67c5.03-11.98,12.53-19.61,23.52-23.8-9.25-4.63-17.11-11.68-23.19-24.12-6.32,12.35-15.42,19.29-24.73,23.79,10.92,4.33,19.54,12.08,24.4,24.13Z" style="fill:#fff;"/></svg>